<svg id="OBJECTS" xmlns="http://www.w3.org/2000/svg" viewBox="0 0 135.09 146.04"><defs><style>.cls-1{fill:#51b5b8;}.cls-1,.cls-2,.cls-3,.cls-4{fill-rule:evenodd;}.cls-2{fill:#fff;}.cls-3{fill:#ffd64a;}.cls-4{fill:#36252c;}</style></defs><title>penguin</title><path class="cls-1" d="M116.88,129.86a4.28,4.28,0,0,1-3.3-3.24,4.9,4.9,0,0,0-.53-1.4,7.7,7.7,0,0,1-1.34-4.59,20.21,20.21,0,0,0-.59-3.59c-1-5.08-1.94-10.15-3-15.22-.43-2.08-1.05-4.13-1.53-6.21a23,23,0,0,1-.48-3,12.6,12.6,0,0,0-1.69-5.48A16.62,16.62,0,0,1,102.67,82a20.79,20.79,0,0,0-1.37-4.33c-1.6-3.28-3.36-6.49-5.09-9.71a8.4,8.4,0,0,0-1.44-2c-2.29-2.28-4.37-4.79-7.17-6.55a26.38,26.38,0,0,1-3.22-2.79,9.44,9.44,0,0,0-3.47-1.77,25.34,25.34,0,0,0-8.38-1.14c-3.14.06-6.31-.11-9.37.71s-6.12,1.47-8.72,3.4a8.48,8.48,0,0,1-1.59.88C45.6,62.1,41.36,67.83,39.63,75.52c-.75,3.35-1.43,6.72-2.14,10.08a5.55,5.55,0,0,0-.19,1.2,53.29,53.29,0,0,1-.5,7.88,37.62,37.62,0,0,1-.47,4.82,13.72,13.72,0,0,0,.05,3.94c.11,1.93.28,3.85.43,5.77a4.09,4.09,0,0,0,0,.61c1.11,5.57,1.82,11.22,3.77,16.6a10.85,10.85,0,0,1,.24,1.18A12.78,12.78,0,0,1,37,124c-2.12-3.21-4.71-6.1-6.43-9.61-.6-1.25-1.46-2.4-2.16-3.63a26.64,26.64,0,0,1-2.93-8.6c-.3-1.6-.6-3.2-.94-4.78a41.19,41.19,0,0,1-.78-6.65c-.2-3.74-.16-7.53-1.16-11.19a5,5,0,0,1-.11-1.22,128.13,128.13,0,0,1,1.41-22.48,79.93,79.93,0,0,1,6-19.47,38.6,38.6,0,0,1,6.51-9.89A78.09,78.09,0,0,1,47,16.43a23.36,23.36,0,0,1,3-2,52,52,0,0,1,15-5c1.09-.22,2.19-.41,3.28-.66a28.49,28.49,0,0,1,7-.66q5,.09,10.06,0a16.58,16.58,0,0,1,5.1.7c1.17.35,2.34.69,3.51,1A23.78,23.78,0,0,1,100,12.53c2.8,1.68,5.34,3.69,8,5.54a18.82,18.82,0,0,1,3.49,3.36c3.38,3.88,5.52,8.49,7.77,13,1.07,2.17,1.71,4.56,2.72,6.76,2.31,5,3.31,10.45,4.75,15.72,1,3.58,1,7.41,1.55,11.12.56,4.11.26,8.33,1.74,12.3.73,5.85,3.35,11,5.85,16.22a8,8,0,0,0,1.43,1.94,2.41,2.41,0,0,1,.58,2.52,7.16,7.16,0,0,1-.51,1.43c-1.5,2.89-2.23,6.06-3.44,9.06a23.15,23.15,0,0,1-1.88,3.8c-1.29,2.07-2.68,4.07-4.1,6a12.22,12.22,0,0,1-1.87,2A43.78,43.78,0,0,1,116.88,129.86Zm-8.06-50.39a8.1,8.1,0,0,0,1,3.77c.86,2.28,1.8,4.53,2.57,6.84a29.36,29.36,0,0,0,6.17,10.74,11.18,11.18,0,0,0,2.68,2,1.91,1.91,0,0,0,2.67-.66,11.4,11.4,0,0,0,1.54-2.62c1-2.75,2.09-5.51,2.06-8.53a7.33,7.33,0,0,1,.19-1.81,28.18,28.18,0,0,0,.24-8.79q-.24-2.88-.44-5.77A42.45,42.45,0,0,0,125,63.37s-.15,0-.24-.08c-.54.11-.53.59-.51,1a31.34,31.34,0,0,0,.44,4.85c1.2,5.49,1.21,11.08,1.39,16.66,0,1.7-.44,3.42-.5,5.14a25.81,25.81,0,0,1-2.06,8.22,2.31,2.31,0,0,1-1.8,1.8,11.43,11.43,0,0,1-2-1.53,35.55,35.55,0,0,1-3.12-4.11C113.51,90.37,111.79,84.78,108.82,79.47ZM64.58,44.06a20.42,20.42,0,0,0-10.81,2.35c-1.51.82-1.88,1.55-1.36,3.16.19.58.46,1.13.69,1.69a2.22,2.22,0,0,0,2.13,1.39c4.53.36,8.35-1.37,11.79-4a7.31,7.31,0,0,0,1.76-2.77,1.36,1.36,0,0,0-1.16-1.78C66.61,44,65.6,44.06,64.58,44.06Zm23-3.89c-.75-.27-1.58-.61-2.45-.85a1.84,1.84,0,0,0-1.16.1,3.69,3.69,0,0,0-2.11,4,1.5,1.5,0,0,0,1.37,1.4,21.8,21.8,0,0,0,3,.24,1.89,1.89,0,0,0,2-1.86A4.25,4.25,0,0,0,87.59,40.17ZM38.52,48.23a4.61,4.61,0,0,0,.56,1.35c1,1.27,4.39.75,5-.71a2.07,2.07,0,0,0,.16-.59,2.49,2.49,0,0,0-2.57-3C39.44,45.13,38.53,45.89,38.52,48.23Z" transform="translate(-5.48 -5.78)"/><path class="cls-2" d="M114.23,131.06a9.54,9.54,0,0,1-4.14,2.26,25.21,25.21,0,0,0-4,1.53,34.3,34.3,0,0,1-8.8,2.36c-3.51.51-7,.91-10.54,1.46a84.53,84.53,0,0,1-17.34.5c-3.09-.16-6.16-1.21-9.18-2.08s-5.77-1.91-8.61-3a32,32,0,0,1-4.94-2.37,5.6,5.6,0,0,1-1.75-2,27.18,27.18,0,0,1-3.86-9.87c-.21-1.4-.47-2.8-.8-4.18A58,58,0,0,1,39,106.93c-.29-3.45-.46-6.89-.47-10.34a70.15,70.15,0,0,1,1.64-16.3,51.21,51.21,0,0,1,3.9-11.17A16.7,16.7,0,0,1,47,65.25a62.32,62.32,0,0,1,4.89-4.58,8.67,8.67,0,0,1,2.4-1.24,32.82,32.82,0,0,0,4-1.5c3.29-1.87,6.9-2.29,10.55-2.55,1.82-.13,3.66,0,5.49,0a15.57,15.57,0,0,1,4.79.75,16.06,16.06,0,0,1,6,3.36,63.89,63.89,0,0,1,9.07,9.39,17.54,17.54,0,0,1,2.44,3.84c1.3,3.19,2.92,6.25,3.77,9.63.72,2.85,1.79,5.6,2.58,8.44,1,3.42,1.85,6.86,2.6,10.33,1,4.56,2.27,9.06,2.65,13.74a10.81,10.81,0,0,0,.31,1.48,15.24,15.24,0,0,1,.68,3.27,16.75,16.75,0,0,0,2.13,7.79A7.39,7.39,0,0,0,114.23,131.06Z" transform="translate(-5.48 -5.78)"/><path class="cls-1" d="M21.31,86.89c-.4-.07-.67,0-.76-.15-1.9-2.24-4-4.32-5.25-7.06a15.38,15.38,0,0,0-2-3.06A43.13,43.13,0,0,1,7.66,66.23a5.92,5.92,0,0,1-.4-1.77c-.14-2,.62-2.83,2.57-2.92a14.06,14.06,0,0,1,2.43,0c2.79.38,5.58.81,8.59,1.25v1.7c-.05,4.46-.14,8.93-.12,13.39a33.16,33.16,0,0,0,.49,4.54A15.36,15.36,0,0,1,21.31,86.89Z" transform="translate(-5.48 -5.78)"/><path class="cls-3" d="M113.65,146.89c-.59-.5-1.25-1.1-1.94-1.67a16.82,16.82,0,0,0-1.9-1.49,1.12,1.12,0,0,0-1.74,1,9.57,9.57,0,0,0-.09,1.51,4,4,0,0,1-1.64,3.39c-2.78-.37-2.91-.51-4.73-5.21a5,5,0,0,0-1.28.58c-1,.85-1.92,1.79-2.89,2.68-.44.39-.45.37-2,.47a5.13,5.13,0,0,1,.31-4.32,36.25,36.25,0,0,0,1.85-4c2.34-.61,4.6-1.11,6.81-1.8s4.13-1.5,6.31-2.31a27.76,27.76,0,0,1,4,7.15,5.65,5.65,0,0,1,.32,2.09A1.84,1.84,0,0,1,113.65,146.89Z" transform="translate(-5.48 -5.78)"/><path class="cls-3" d="M47,134.89a74.3,74.3,0,0,1,12.79,4.72c0,1.67-.86,3.23-1.13,4.9-.09.53-.59,1-1,1.63-1.25-.78-1.65-2.31-3.08-2.62a3.54,3.54,0,0,0-2.66,1.72,3.1,3.1,0,0,1-2.83,1.43c-1.22-2,1-4-.41-6-2.29,0-4.42,2.11-7,.85C42.18,138.13,44.68,136.55,47,134.89Z" transform="translate(-5.48 -5.78)"/><path class="cls-3" d="M66.32,46.11c-2.64,3.32-6.48,4.68-11,4a3.32,3.32,0,0,1-.9-2.7,3.15,3.15,0,0,1,2.41-1C61.46,46.05,63,45.18,66.32,46.11Z" transform="translate(-5.48 -5.78)"/><path class="cls-4" d="M113,135c1.07,1.94,2.07,3.59,2.9,5.32a18.92,18.92,0,0,1,1.13,3.46,4.87,4.87,0,0,1-.27,3c-.8,2.09-2.69,2.76-4.53,1.46a20.74,20.74,0,0,1-1.77-1.56c-.83.15-.65.76-.69,1.19a5.52,5.52,0,0,1-1.59,2.89,2.59,2.59,0,0,1-3,.88,5.28,5.28,0,0,1-3.39-2.39c-.34-.61-.76-1.19-1.26-2a13.39,13.39,0,0,0-1.63,1.27c-1.54,1.68-3.31,1.68-5.21.94-1.11-3.45,0-6.43,1.83-9.44a53.8,53.8,0,0,0-5.87.55,68.06,68.06,0,0,1-14.25,1.09c-3.75,0-7.51.13-11.15-1.12a9.18,9.18,0,0,0-2.19-.2,16.93,16.93,0,0,0-.9,3.27,6.75,6.75,0,0,1-1.26,3,2.77,2.77,0,0,1-2.76,1.52c-1.1-.07-1.57-.75-1.94-1.65a2.49,2.49,0,0,0-.5-.64c-.7-.19-1,.26-1.29.66a5.8,5.8,0,0,1-2.93,2.09c-2,.67-3.41-.33-3.5-2.41,0-.81-.06-1.61-.1-2.42,0-.08-.1-.16-.15-.24-1.3.14-2.59.39-3.89.4a13,13,0,0,1-2.65-.51A1.9,1.9,0,0,1,39,140.6c1.39-2.5,2.89-4.9,5.54-6.29.17-.09.27-.29.48-.51-.05-.93-1-1.19-1.6-1.49-3.25-1.54-5.33-4.32-7.56-6.94A11,11,0,0,0,33.54,123a12,12,0,0,1-4.2-4.73,9.35,9.35,0,0,0-1.08-1.84,19.7,19.7,0,0,1-3.55-7.68,87.58,87.58,0,0,1-2.93-16.15,3.81,3.81,0,0,0-.64-2c-1.55-2-3.21-3.9-4.83-5.85a17.42,17.42,0,0,1-1.1-1.46c-2-3.27-4.15-6.5-6.06-9.85a53.13,53.13,0,0,1-3.24-6.87,9.33,9.33,0,0,1-.42-3.58,3.55,3.55,0,0,1,3.19-3.14,17.82,17.82,0,0,1,5.44.3,44.19,44.19,0,0,0,5.38,1A8.13,8.13,0,0,0,21,61.1a12,12,0,0,0,.34-1.56c.64-8.41,3.18-16.34,6.47-24a37,37,0,0,1,6.8-10.42,101.71,101.71,0,0,1,9.83-9.53,34.73,34.73,0,0,1,8.63-5.05,54.58,54.58,0,0,1,9.91-3c1-.22,2-.37,3-.6A43.21,43.21,0,0,1,77.78,5.83a59.1,59.1,0,0,0,6.1,0C89,5.49,93.73,7.18,98.36,8.93c2.51,1,4.7,2.77,7,4.27,1.53,1,3,2.12,4.44,3.21a11.5,11.5,0,0,1,2.08,1.78c1.92,2.34,4.16,4.44,5.44,7.28A39.15,39.15,0,0,0,119.83,30c1.82,3,2.61,6.38,4.1,9.49,2.6,5.45,3.56,11.42,5.32,17.13.5,1.61.33,3.42.59,5.13a116.74,116.74,0,0,1,1.49,13.58,4.53,4.53,0,0,0,.1.91c1,3.91,1.59,7.94,3.22,11.68,1,2.41,1.74,5,3.15,7.23a21.63,21.63,0,0,0,1.57,2.58c1.55,1.79,1.45,3.67.54,5.66-.47,1-1,2-1.45,3-.67,1.78-1.15,3.64-1.89,5.39a35.51,35.51,0,0,1-2.52,4.86c-1.28,2.07-2.7,4.06-4.11,6a11.81,11.81,0,0,1-1.84,2,48,48,0,0,1-7,5.41c-2.27,1.32-4.33,3-6.85,3.93A6.23,6.23,0,0,0,113,135Zm3.93-5.18a43.78,43.78,0,0,0,9.16-6.48,12.22,12.22,0,0,0,1.87-2c1.42-2,2.81-4,4.1-6a23.15,23.15,0,0,0,1.88-3.8c1.21-3,1.94-6.17,3.44-9.06a7.16,7.16,0,0,0,.51-1.43,2.41,2.41,0,0,0-.58-2.52,8,8,0,0,1-1.43-1.94c-2.5-5.21-5.12-10.37-5.85-16.22-1.48-4-1.18-8.19-1.74-12.3-.5-3.71-.57-7.54-1.55-11.12-1.44-5.27-2.44-10.69-4.75-15.72-1-2.2-1.65-4.59-2.72-6.76-2.25-4.54-4.39-9.15-7.77-13A18.82,18.82,0,0,0,108,18.07c-2.67-1.85-5.21-3.86-8-5.54a23.78,23.78,0,0,0-6.07-2.72c-1.17-.32-2.34-.66-3.51-1a16.58,16.58,0,0,0-5.1-.7q-5,.09-10.06,0a28.49,28.49,0,0,0-7,.66c-1.09.25-2.19.44-3.28.66a52,52,0,0,0-15,5,23.36,23.36,0,0,0-3,2,78.09,78.09,0,0,0-10.62,10,38.6,38.6,0,0,0-6.51,9.89,79.93,79.93,0,0,0-6,19.47A128.13,128.13,0,0,0,22.45,78.3a5,5,0,0,0,.11,1.22c1,3.66,1,7.45,1.16,11.19a41.19,41.19,0,0,0,.78,6.65c.34,1.58.64,3.18.94,4.78a26.64,26.64,0,0,0,2.93,8.6c.7,1.23,1.56,2.38,2.16,3.63,1.72,3.51,4.31,6.4,6.43,9.61a12.78,12.78,0,0,0,3.87,3.62,10.85,10.85,0,0,0-.24-1.18c-2-5.38-2.66-11-3.77-16.6a4.09,4.09,0,0,1,0-.61c-.15-1.92-.32-3.84-.43-5.77a13.72,13.72,0,0,1-.05-3.94,37.62,37.62,0,0,0,.47-4.82,53.29,53.29,0,0,0,.5-7.88,5.55,5.55,0,0,1,.19-1.2c.71-3.36,1.39-6.73,2.14-10.08,1.73-7.69,6-13.42,13.22-16.78a8.48,8.48,0,0,0,1.59-.88c2.6-1.93,5.7-2.6,8.72-3.4s6.23-.65,9.37-.71a25.34,25.34,0,0,1,8.38,1.14,9.44,9.44,0,0,1,3.47,1.77,26.38,26.38,0,0,0,3.22,2.79c2.8,1.76,4.88,4.27,7.17,6.55a8.4,8.4,0,0,1,1.44,2c1.73,3.22,3.49,6.43,5.09,9.71A20.79,20.79,0,0,1,102.67,82a16.62,16.62,0,0,0,1.78,5.14,12.6,12.6,0,0,1,1.69,5.48,23,23,0,0,0,.48,3c.48,2.08,1.1,4.13,1.53,6.21,1,5.07,2,10.14,3,15.22a20.21,20.21,0,0,1,.59,3.59,7.7,7.7,0,0,0,1.34,4.59,4.9,4.9,0,0,1,.53,1.4A4.28,4.28,0,0,0,116.88,129.86Zm-2.65,1.2a7.39,7.39,0,0,1-2.94-3.67,16.75,16.75,0,0,1-2.13-7.79,15.24,15.24,0,0,0-.68-3.27,10.81,10.81,0,0,1-.31-1.48c-.38-4.68-1.67-9.18-2.65-13.74-.75-3.47-1.65-6.91-2.6-10.33-.79-2.84-1.86-5.59-2.58-8.44-.85-3.38-2.47-6.44-3.77-9.63a17.54,17.54,0,0,0-2.44-3.84,63.89,63.89,0,0,0-9.07-9.39,16.06,16.06,0,0,0-6-3.36,15.57,15.57,0,0,0-4.79-.75c-1.83,0-3.67-.12-5.49,0-3.65.26-7.26.68-10.55,2.55a32.82,32.82,0,0,1-4,1.5,8.67,8.67,0,0,0-2.4,1.24A62.32,62.32,0,0,0,47,65.25a16.7,16.7,0,0,0-2.89,3.87,51.21,51.21,0,0,0-3.9,11.17,70.15,70.15,0,0,0-1.64,16.3c0,3.45.18,6.89.47,10.34a58,58,0,0,0,1.32,8.71c.33,1.38.59,2.78.8,4.18A27.18,27.18,0,0,0,45,129.69a5.6,5.6,0,0,0,1.75,2,32,32,0,0,0,4.94,2.37c2.84,1.09,5.69,2.16,8.61,3s6.09,1.92,9.18,2.08a84.53,84.53,0,0,0,17.34-.5c3.5-.55,7-.95,10.54-1.46a34.3,34.3,0,0,0,8.8-2.36,25.21,25.21,0,0,1,4-1.53A9.54,9.54,0,0,0,114.23,131.06ZM21.31,86.89a15.36,15.36,0,0,0-.09-4.44,33.16,33.16,0,0,1-.49-4.54c0-4.46.07-8.93.12-13.39v-1.7c-3-.44-5.8-.87-8.59-1.25a14.06,14.06,0,0,0-2.43,0c-1.95.09-2.71,1-2.57,2.92a5.92,5.92,0,0,0,.4,1.77,43.13,43.13,0,0,0,5.66,10.39,15.38,15.38,0,0,1,2,3.06c1.25,2.74,3.35,4.82,5.25,7.06C20.64,86.85,20.91,86.82,21.31,86.89Zm92.34,60a1.84,1.84,0,0,0,1.37-2,5.65,5.65,0,0,0-.32-2.09,27.76,27.76,0,0,0-4-7.15c-2.18.81-4.21,1.66-6.31,2.31s-4.47,1.19-6.81,1.8a36.25,36.25,0,0,1-1.85,4,5.13,5.13,0,0,0-.31,4.32c1.6-.1,1.61-.08,2-.47,1-.89,1.89-1.83,2.89-2.68a5,5,0,0,1,1.28-.58c1.82,4.7,2,4.84,4.73,5.21a4,4,0,0,0,1.64-3.39,9.57,9.57,0,0,1,.09-1.51,1.12,1.12,0,0,1,1.74-1,16.82,16.82,0,0,1,1.9,1.49C112.4,145.79,113.06,146.39,113.65,146.89ZM47,134.89c-2.31,1.66-4.81,3.24-5.27,6.59,2.53,1.26,4.66-.85,7-.85,1.37,2-.81,4.07.41,6a3.1,3.1,0,0,0,2.83-1.43,3.54,3.54,0,0,1,2.66-1.72c1.43.31,1.83,1.84,3.08,2.62.41-.64.91-1.1,1-1.63.27-1.67,1.14-3.23,1.13-4.9A74.3,74.3,0,0,0,47,134.89Z" transform="translate(-5.48 -5.78)"/><path class="cls-4" d="M108.82,79.47c3,5.31,4.69,10.9,7.78,15.81a35.55,35.55,0,0,0,3.12,4.11,11.43,11.43,0,0,0,2,1.53,2.31,2.31,0,0,0,1.8-1.8,25.81,25.81,0,0,0,2.06-8.22c.06-1.72.55-3.44.5-5.14-.18-5.58-.19-11.17-1.39-16.66a31.34,31.34,0,0,1-.44-4.85c0-.37,0-.85.51-1,.09,0,.22,0,.24.08a42.45,42.45,0,0,1,2.49,11.24q.2,2.9.44,5.77a28.18,28.18,0,0,1-.24,8.79,7.33,7.33,0,0,0-.19,1.81c0,3-1,5.78-2.06,8.53a11.4,11.4,0,0,1-1.54,2.62,1.91,1.91,0,0,1-2.67.66,11.18,11.18,0,0,1-2.68-2,29.36,29.36,0,0,1-6.17-10.74c-.77-2.31-1.71-4.56-2.57-6.84A8.1,8.1,0,0,1,108.82,79.47Z" transform="translate(-5.48 -5.78)"/><path class="cls-4" d="M64.58,44.06c1,0,2-.06,3,0a1.36,1.36,0,0,1,1.16,1.78A7.31,7.31,0,0,1,67,48.62c-3.44,2.66-7.26,4.39-11.79,4a2.22,2.22,0,0,1-2.13-1.39c-.23-.56-.5-1.11-.69-1.69-.52-1.61-.15-2.34,1.36-3.16A20.42,20.42,0,0,1,64.58,44.06Zm1.74,2c-3.32-.93-4.86-.06-9.45.33a3.15,3.15,0,0,0-2.41,1,3.32,3.32,0,0,0,.9,2.7C59.84,50.79,63.68,49.43,66.32,46.11Z" transform="translate(-5.48 -5.78)"/><path class="cls-4" d="M87.59,40.17a4.25,4.25,0,0,1,.66,3,1.89,1.89,0,0,1-2,1.86,21.8,21.8,0,0,1-3-.24,1.5,1.5,0,0,1-1.37-1.4,3.69,3.69,0,0,1,2.11-4,1.84,1.84,0,0,1,1.16-.1C86,39.56,86.84,39.9,87.59,40.17Z" transform="translate(-5.48 -5.78)"/><path class="cls-4" d="M38.52,48.23c0-2.34.92-3.1,3.16-3a2.49,2.49,0,0,1,2.57,3,2.07,2.07,0,0,1-.16.59c-.62,1.46-4.05,2-5,.71A4.61,4.61,0,0,1,38.52,48.23Z" transform="translate(-5.48 -5.78)"/></svg>